<?xml version="1.0" standalone="no"?>
<!DOCTYPE svg PUBLIC "-//W3C//DTD SVG 20010904//EN" "http://www.w3.org/TR/2001/REC-SVG-20010904/DTD/svg10.dtd">
<svg version="1.0" xmlns="http://www.w3.org/2000/svg" width="7cm" height="7cm" viewBox="0 0 1290 1290">
	<g transform="translate(0,1290) scale(1,-1)" fill="#000" stroke="none">
		<title>Easy Maze Puzzle, by Adam Stanislav</title>
		<path d="M60 640l0-590 5 0 5 0 0 135 0 135 45 0 45 0 0 90 0 90 130 0 130 0 0-40 0-40-90 0-90 0 0-5 0-5 95 0 95 0 0 45 0 45 85 0 85 0 0-45 0-45 45 0 45 0 0-85 0-85-45 0-45 0 0-5 0-5 45 0 45 0 0-40 0-40-85 0-85 0 0 85 0 85 45 0 45 0 0 5 0 5-45 0-45 0 0 45 0 45-5 0-5 0 0-45 0-45-135 0-135 0 0-45 0-45-45 0-45 0 0-5 0-5 140 0 140 0 0 5 0 5-90 0-90 0 0 40 0 40 130 0 130 0 0-85 0-85-180 0-180 0 0-5 0-5 275 0 275 0 0 90 0 90 85 0 85 0 0-40 0-40-45 0-45 0 0-5 0-5 90 0 90 0 0-45 0-45 95 0 95 0 0 230 0 230-45 0-45 0 0 45 0 45-45 0-45 0 0 45 0 45-5 0-5 0 0-50 0-50 45 0 45 0 0-45 0-45 45 0 45 0 0-220 0-220-85 0-85 0 0 40 0 40 45 0 45 0 0 50 0 50-5 0-5 0 0-45 0-45-85 0-85 0 0 85 0 85 40 0 40 0 0-45 0-45 5 0 5 0 0 45 0 45 45 0 45 0 0 50 0 50-5 0-5 0 0-45 0-45-90 0-90 0 0-45 0-45-85 0-85 0 0 45 0 45-45 0-45 0 0 90 0 90-95 0-95 0 0-5 0-5 90 0 90 0 0-40 0-40-130 0-130 0 0 85 0 85 90 0 90 0 0 230 0 230-95 0-95 0 0-5 0-5 45 0 45 0 0-45 0-45 5 0 5 0 0 45 0 45 40 0 40 0 0-220 0-220-85 0-85 0 0 40 0 40 45 0 45 0 0 95 0 95-45 0-45 0 0 45 0 45-5 0-5 0 0-45 0-45-40 0-40 0 0 90 0 90-50 0-50 0 0-5 0-5 45 0 45 0 0-90 0-90 90 0 90 0 0-85 0-85-45 0-45 0 0-90 0-90-45 0-45 0 0-5 0-5 45 0 45 0 0-40 0-40-85 0-85 0 0 85 0 85 45 0 45 0 0 50 0 50-5 0-5 0 0-45 0-45-45 0-45 0 0-180 0-180-40 0-40 0 0 220 0 220 45 0 45 0 0 45 0 45 90 0 90 0 0 5 0 5-90 0-90 0 0 45 0 45-5 0-5 0 0-90 0-90-40 0-40 0 0 130 0 130 45 0 45 0 0 5 0 5-45 0-45 0 0 85 0 85 45 0 45 0 0 5 0 5-50 0-50 0 0-590zM240 1225l0-5 180 0 180 0 0-45 0-45 50 0 50 0 0 5 0 5-45 0-45 0 0 40 0 40 175 0 175 0 0-85 0-85-85 0-85 0 0 40 0 40 45 0 45 0 0 5 0 5-50 0-50 0 0-45 0-45-90 0-90 0 0-95 0-95 5 0 5 0 0 90 0 90 175 0 175 0 0-45 0-45 5 0 5 0 0 45 0 45 45 0 45 0 0 5 0 5-45 0-45 0 0 85 0 85 130 0 130 0 0-175 0-175-40 0-40 0 0 135 0 135-50 0-50 0 0-5 0-5 45 0 45 0 0-85 0-85-45 0-45 0 0-5 0-5 45 0 45 0 0-45 0-45 45 0 45 0 0-85 0-85-40 0-40 0 0 45 0 45-45 0-45 0 0 45 0 45-90 0-90 0 0 45 0 45-95 0-95 0 0-5 0-5 45 0 45 0 0-180 0-180 5 0 5 0 0 180 0 180 40 0 40 0 0-180 0-180 45 0 45 0 0-40 0-40-130 0-130 0 0 180 0 180-5 0-5 0 0-45 0-45-45 0-45 0 0-5 0-5 45 0 45 0 0-40 0-40-45 0-45 0 0-5 0-5 45 0 45 0 0-90 0-90 45 0 45 0 0-45 0-45 5 0 5 0 0 45 0 45 90 0 90 0 0 50 0 50-45 0-45 0 0 130 0 130 85 0 85 0 0-45 0-45 45 0 45 0 0-45 0-45 45 0 45 0 0-310 0-310-175 0-175 0 0 45 0 45-5 0-5 0 0-45 0-45-40 0-40 0 0 45 0 45-5 0-5 0 0-45 0-45-315 0-315 0 0-5 0-5 545 0 545 0 0 590 0 590-500 0-500 0 0-5z"/>
	</g>
</svg>
